<?xml version="1.0" standalone="no"?>
<!DOCTYPE svg PUBLIC "-//W3C//DTD SVG 20010904//EN"
 "http://www.w3.org/TR/2001/REC-SVG-20010904/DTD/svg10.dtd">
<svg version="1.0" xmlns="http://www.w3.org/2000/svg"
 width="247.000000pt" height="247.000000pt" viewBox="0 0 247.000000 247.000000"
 preserveAspectRatio="xMidYMid meet">
<metadata>
Created by potrace 1.14, written by Peter Selinger 2001-2017
</metadata>
<g transform="translate(0.000000,247.000000) scale(0.100000,-0.100000)"
fill="#000000" stroke="none">
<path d="M1026 2334 c-429 -85 -765 -402 -877 -829 -21 -80 -24 -111 -23 -275
0 -157 4 -197 22 -262 116 -420 407 -710 822 -820 98 -26 316 -35 431 -18 439
64 803 393 919 830 34 128 39 360 11 494 -21 104 -36 130 -82 141 -21 5 -34 0
-60 -23 l-34 -30 13 -58 c40 -182 41 -334 3 -484 -27 -106 -103 -264 -169
-350 -127 -169 -328 -299 -538 -352 -128 -32 -343 -32 -464 0 -107 29 -266
105 -350 170 -169 127 -299 328 -352 538 -32 128 -32 343 0 464 29 107 105
266 170 350 127 169 328 299 538 352 116 29 345 32 440 5 82 -23 100 -22 129
8 31 30 32 66 3 100 -49 56 -372 85 -552 49z"/>
<path d="M1887 2222 l-107 -107 0 -115 0 -114 -232 -233 -233 -234 -52 7
c-115 14 -223 -81 -223 -195 0 -14 11 -49 24 -78 19 -39 35 -58 72 -79 143
-84 312 29 289 194 l-6 47 233 233 234 232 115 0 114 0 110 110 c95 95 108
112 95 124 -8 7 -67 23 -131 36 l-117 22 -22 117 c-21 108 -33 141 -49 141 -3
0 -55 -48 -114 -108z"/>
<path d="M1092 1875 c-181 -40 -358 -178 -441 -345 -95 -193 -95 -393 0 -588
58 -120 169 -231 289 -291 193 -95 396 -95 590 0 67 33 102 59 166 124 135
135 200 299 192 483 -3 74 -6 86 -27 103 -30 24 -72 24 -102 0 -21 -17 -24
-26 -22 -86 8 -203 -103 -398 -275 -484 -200 -99 -440 -57 -591 105 -67 71
-106 146 -127 242 -17 84 -17 110 1 197 50 237 241 393 490 400 50 1 100 7
112 14 46 24 42 101 -7 126 -36 19 -160 19 -248 0z"/>
</g>
</svg>
